<svg xmlns="http://www.w3.org/2000/svg" xml:space="preserve" viewBox="0 0 100 100">
  <g class="ldl-scale">
    <path fill="#f5e6c8" stroke="#333" stroke-miterlimit="10" stroke-width="3" d="M70.563 87.167H29.437a5.058 5.058 0 0 1-5.058-5.058V17.891a5.058 5.058 0 0 1 5.058-5.058h41.127a5.058 5.058 0 0 1 5.058 5.058v64.217a5.06 5.06 0 0 1-5.059 5.059z"/>
    <path fill="#333" d="M36 20.667a2.518 2.518 0 0 1-2.518-2.518v-7.964a2.518 2.518 0 1 1 5.036 0v7.964A2.518 2.518 0 0 1 36 20.667zm9.333 0a2.518 2.518 0 0 1-2.518-2.518v-7.964a2.518 2.518 0 1 1 5.036 0v7.964a2.518 2.518 0 0 1-2.518 2.518zm9.334 0a2.518 2.518 0 0 1-2.518-2.518v-7.964a2.518 2.518 0 1 1 5.036 0v7.964a2.519 2.519 0 0 1-2.518 2.518zm9.333 0a2.518 2.518 0 0 1-2.518-2.518v-7.964a2.518 2.518 0 1 1 5.036 0v7.964A2.518 2.518 0 0 1 64 20.667z"/>
    <path fill="none" stroke="#333" stroke-miterlimit="10" stroke-width="3" d="M36 38h28m-28 7h28m-28 7h18"/>
  </g>
</svg>
